# xmcd CD database file
#
# Track frame offsets:
#	150
#	31932
#	108638
#	137235
#	163240
#
# Disc length: 2857 seconds
#
# Revision: 0
# Processed by: cddbd v1.5.1PL2 Copyright (c) Steve Scherf et al.
# Submitted via: CDex 1.51
#
DISCID=420b2705
DTITLE=The Core - Blue Sky
DYEAR=2006
DGENRE=Jazz
TTITLE0=Cavemans Blues
TTITLE1=Illiman Dance
TTITLE2=Blue Sky, Blue Eyes
TTITLE3=Shoot The Evil Dog
TTITLE4=Indian Song
EXTD=YEAR: 2006
EXTT0=
EXTT1=
EXTT2=
EXTT3=
EXTT4=
PLAYORDER=
